<svg width="20" height="19" viewBox="0 0 20 19" fill="none" xmlns="http://www.w3.org/2000/svg">
<path d="M10.0077 0.224999C15.0077 0.224999 19.0577 4.25 19.0577 9.25C19.0577 14.25 15.0077 18.275 10.0077 18.275C5.00772 18.275 0.957715 14.25 0.957715 9.25C0.957715 4.25 5.00772 0.224999 10.0077 0.224999ZM10.0077 17.675C14.6327 17.675 18.3827 13.925 18.3827 9.25C18.3827 4.575 14.6327 0.824999 10.0077 0.824999C5.38272 0.824999 1.60772 4.575 1.60772 9.25C1.60772 13.925 5.38272 17.675 10.0077 17.675ZM13.5077 7.525C13.5077 8.8 12.9077 9.775 11.6327 10.175L13.7327 13.875H12.4077L10.4577 10.4H10.1077H8.53272V13.875H7.33272V4.625H10.1077C12.4327 4.625 13.5077 6.05 13.5077 7.525ZM8.53272 9.25H10.1577C11.6327 9.25 12.3077 8.575 12.3077 7.525C12.3077 6.5 11.5827 5.775 10.1577 5.775H8.53272V9.25Z" fill="black"/>
</svg>
